<svg xmlns="http://www.w3.org/2000/svg" viewBox="0 0 81.8 80.2">
  <path d="M50 79.4c0-.7-.1-.8-.6-.8-1.3 0-2.2-1-2.7-2.6l-.8-2.7c-.6-1.6-.5-4.1 0-5 .7-.9.6-3.8 0-6-.7-2.4-.5-6.6.5-8.9.4-.9 1-2.6 1.2-3.6.6-2.2.8-2.6 3-4l1.4-1h10.6l1.2-.8c2.2-1.5 3.5-3.4 6.5-10 1.1-2.1 1.6-3 2.6-3.7 1-.8 1.1-1.1 1.3-2 0-.7.2-1.4.3-1.7.1-.5 0-.6-2.2-1.1a84 84 0 0 1-6.5-1.8c-.3-.2-.5 0-.5.3 0 .9-2 1.3-6 1.3s-5.8-.4-9.7-2.3c-2.3-1-2.8-1.5-3.8-2.7l-1.2-1.5-2.9.1-2.8.2-.8-1.7c-.4-1-.9-2.3-1-3-.4-1.8-.4-1.7 0-1.7.2 0 .5.6.7 1.4l.9 2.8c.6 1.3.6 1.3 1.7 1.4l1.9-.2.8-.2-.6-.8c-.4-.4-.7-1-.7-1.1 0-.6-1-4-1.4-4.8-.4-.9-4.4-2.9-5.3-2.6-1.3.3-1.8 1-2 2.8a6.2 6.2 0 0 1-1.7 3.7c-.4.6-.9 1.4-1 1.9-.5.9-.4 1.5.7 4.7.6 1.7 1.3 1.8 6.6 1.8h4.4l1 1.2 2.5 2.3c1.7 1.3 1.8 1.2 4.1-.3 1.3-.8 1.2-1-.5-1-.8 0-1 0-.8-.5 0-.7-.4-1.7-.9-1.7-.4 0-1-.7-.9-.9 0 0 1 .3 2.2.9 5 2.4 10 3.2 14.4 2.3l2-.3c.3.3-.2 2-1 3.5a9.4 9.4 0 0 1-8.4 4.6c-2.2 0-3.9-.8-6-2.8-.9-.8-1.7-1.3-1.7-1.2-.1 0-.2 3-.2 6.4 0 5.4 0 6.4-.4 6.7-.4.4-2 .4-15.4.4L17 43 17 32.9c0-5.6-.2-10.1-.2-10.1-.6 0-5 4.2-6.1 5.9-.4.5-1 1.7-1.3 2.6a11 11 0 0 1-3.2 5L4.5 38 4 40.4l-.5 4.2c-.3 3-1 5.2-2 7-.6 1-1.2 2-1.3 2.5-.3.8-.4 2.5-.1 2.5.6 0 2.2-2 2.2-2.8l1-2.8a13 13 0 0 0 1.2-4c.2-2.1.7-4.7 1-4.7v3.3c0 2.3 0 4.3.3 6.5.7 4.3.5 6.7-.6 9.3-1 2.5-1.3 4.3-.7 5.6.8 1.8 2.2 5.7 2.8 7.6a9 9 0 0 1 .4 3.8l-.2 1.8h1.7c1 0 1.8-.1 1.9-.2.2-.5-.6-2.8-1.2-3.4a10 10 0 0 1-1.4-2.9C8 71.5 8 71.3 8 68.2c.3-4.8 1.3-9.7 2.5-11.4.3-.5.3-.5.6 0 .4.8.9 6.9.7 8.5-.2 1.3-.1 1.5.6 2.4a133.3 133.3 0 0 1 8 11.6v.9H23c1.8 0 2.8-.1 2.8-.3 0-.6-.5-1.3-1.2-1.4-2.2-.4-5.1-3.6-7-7.5-1.6-3-2-4.6-2-8 0-3.4.4-5.6 1.3-8.2.8-2.5.8-5.9 0-7.2-.6-.9-.6-1-.2-1l5.6 1a34.9 34.9 0 0 0 12.2.7c1 0 1.6.2 2.7.8 2 1.2 2.3 1.7 2 4-.7 3.4-.4 7.4.7 14.1l.5 4.4a9 9 0 0 0 1.1 4.6c.6 1 1 2.4 1.2 3 .1 1 .2 1 1.2 1 1.3 0 1.4-.4.7-2.3-2.2-6.2-3-12.3-2.4-17.6.4-2.9.7-3.9 1-3.1l.2 7.2c0 6.6.1 7 .8 9.4l1.2 4.4.4 1.8 2 .1H50v-.7zm-4.2-43.1c0-2.8 0-5.5.2-6 .2-1.1.2-1.2-1-2L42.6 26l-1.2-1.2H37c-6.3 0-6.6-.2-7.5-3.6-.5-1.7-.5-1.8-1.3-1.6-.4 0-1.4.5-2.2 1-1.4.8-1.7.9-3.9.8-2.6 0-3.2-.3-2.2-1.3.5-.5.5-.6 0-1-.4-.4-.8-.5-1.5-.3-.5.2-.5 1.1 0 1.3.3.1.4 1.6.4 10.6v10.5h27.1zm-4.6.7c.5-.6 1-1 1.2-1 .3 0 2 1.7 2 2 0 .1-.4.7-1 1.2l-1 1-1-1.1-1.2-1.1zm-16 1c0-.4 1.5-2 1.9-2 .3 0 2 1.6 2 2 0 0-.4.7-1 1.2l-1 1-1-1c-.5-.5-1-1-1-1.2zM36.2 39l-.9-1.1c0-.4 1.7-2 2-2 .4 0 2 1.6 2 2 0 .3-1.6 2-2 2 0 0-.6-.4-1-.9zm-5.3 0a4 4 0 0 1-.8-1c0-.3 1.8-2.1 2-2.1l1.2 1 1 1-1 1-1.2 1c-.2 0-.7-.4-1.2-.9zM20.8 39l-1-1 1-1c.6-.6 1-1 1.2-1 .2 0 2 1.8 2 2 0 .3-1.6 2-1.9 2l-1.3-1zm55-15.2l.7-1-.8-1.3a17 17 0 0 1-1.9-4.1c0-.4-1.9-1.3-2.6-1.3l-1.5.4c-1.2.5-1 .6-2-.4-.7-.7-.8-.8-1-.5-.3.5-.4 2.1 0 2.6 0 .2 0 1-.5 2-.3.8-.6 1.7-.5 2 0 .2.8.6 2.3 1a489.3 489.3 0 0 1 6.1 1.6c1.1.1 1.2 0 1.8-1zm2.2-2.4c.4-.3 1-.5 1.3-.5.8 0 2.5-.7 2.5-1l-.4-.5c-.2-.3-.2-.3 0-.3s.4-.3.4-.7c0-1-2-2.8-3-2.8-1.1 0-3.7.8-3.8 1.2-.2.4 1.8 4.7 2.2 5 0 0 .5-.1.8-.4zM40 8.7c.1-.3.5-.5.9-.5.5 0 .6-.1.7-1.4.1-1.8-.2-2.2-1.6-1.8l-1.1.5-1 1.4a7 7 0 0 0-1 1.2l2.5 1.2c.1 0 .4-.3.5-.6zm-2.3-2.9c.6-.8 1.1-1.2 2.1-1.5 1.1-.4 1.4-.6 1.4-1.2 0-.5-.2-.9-1.3-1.9C39.2.6 38.3 0 38 0c-.5 0-1.7.9-1.7 1.4l-.5 1c-.8 1-.7 2.4.4 3.6l.9 1z"/>
</svg>
